<?xml version="1.0" standalone="no"?>
<!DOCTYPE svg PUBLIC "-//W3C//DTD SVG 1.1//EN" 
"http://www.w3.org/Graphics/SVG/1.1/DTD/svg11.dtd">

<svg width="100%" height="100%" version="1.1" xmlns="http://www.w3.org/2000/svg">
	<rect x="10" y="10" rx="10" ry="10" width="220" height="420" style="fill:white;stroke:black;stroke-width:2;opacity:1.0"/>
	<g transform="translate(120 40)">
		<rect x="-100" y="-20" rx="10" ry="10" width="200" height="40" style="fill:yellow;stroke:black;stroke-width:2;opacity:1.0"/>
		<text text-anchor="middle" dominant-baseline="mathematical">Package header</text>
	</g>
	<g transform="translate(120 105)">
		<rect x="-100" y="-40" rx="10" ry="10" width="200" height="80" style="fill:cyan;stroke:black;stroke-width:2;opacity:1.0"/>
		<text text-anchor="middle" dominant-baseline="mathematical">Entity body (real file)</text>
	</g>
	<g transform="translate(120 190)">
		<rect x="-100" y="-40" rx="10" ry="10" width="200" height="80" style="fill:cyan;stroke:black;stroke-width:2;opacity:1.0"/>
		<text text-anchor="middle" dominant-baseline="mathematical">Entity body (real file)</text>
	</g>
	<g transform="translate(120 275)">
		<rect x="-100" y="-40" rx="10" ry="10" width="200" height="80" style="fill:cyan;stroke:black;stroke-width:2;opacity:1.0"/>
		<text text-anchor="middle" dominant-baseline="mathematical">Entity body (real file)</text>
	</g>
	<g transform="translate(120 335)">
		<rect x="-100" y="-15" rx="10" ry="10" width="200" height="30" style="fill:magenta;stroke:black;stroke-width:2;opacity:1.0"/>
		<text text-anchor="middle" dominant-baseline="mathematical">Entity header</text>
	</g>
	<g transform="translate(120 370)">
		<rect x="-100" y="-15" rx="10" ry="10" width="200" height="30" style="fill:magenta;stroke:black;stroke-width:2;opacity:1.0"/>
		<text text-anchor="middle" dominant-baseline="mathematical">Entity header</text>
	</g>
	<g transform="translate(120 405)">
		<rect x="-100" y="-15" rx="10" ry="10" width="200" height="30" style="fill:magenta;stroke:black;stroke-width:2;opacity:1.0"/>
		<text text-anchor="middle" dominant-baseline="mathematical">Entity header</text>
	</g>
</svg>
